<svg width="135" height="18" viewBox="0 0 135 18" fill="none" xmlns="http://www.w3.org/2000/svg">
<path d="M0 17.7568V0.486486H7.41506C8.18297 0.486486 8.88688 0.648648 9.5268 0.972972C10.1667 1.2973 10.7186 1.72703 11.1826 2.26216C11.6625 2.7973 12.0305 3.3973 12.2864 4.06216C12.5584 4.72703 12.6944 5.40811 12.6944 6.1054C12.6944 6.86757 12.5584 7.5973 12.2864 8.29459C12.0145 8.99189 11.6225 9.59189 11.1106 10.0946C10.6147 10.5973 10.0307 10.9622 9.35882 11.1892L13.3663 17.7568H10.3427L6.64716 11.7486H2.68766V17.7568H0ZM2.68766 9.34054H7.39107C7.887 9.34054 8.32695 9.19459 8.7109 8.9027C9.09485 8.61081 9.39881 8.22162 9.62278 7.73513C9.84676 7.23243 9.95874 6.68919 9.95874 6.1054C9.95874 5.5054 9.83076 4.97027 9.57479 4.5C9.31882 4.01351 8.98287 3.62432 8.56692 3.33243C8.16697 3.04054 7.72702 2.89459 7.24708 2.89459H2.68766V9.34054Z" fill="black"/>
<path d="M14.4064 14.0351C14.4064 13.2243 14.6304 12.5189 15.0783 11.9189C15.5423 11.3027 16.1742 10.8324 16.9741 10.5081C17.774 10.1676 18.7019 9.9973 19.7578 9.9973C20.3177 9.9973 20.8856 10.0378 21.4615 10.1189C22.0535 10.2 22.5734 10.3297 23.0213 10.5081V9.70541C23.0213 8.81351 22.7574 8.11622 22.2294 7.61351C21.7015 7.11081 20.9416 6.85946 19.9497 6.85946C19.2458 6.85946 18.5819 6.98919 17.958 7.24865C17.3341 7.49189 16.6701 7.84054 15.9662 8.29459L15.0783 6.49459C15.9102 5.92703 16.7421 5.5054 17.574 5.22973C18.4219 4.95405 19.3098 4.81622 20.2377 4.81622C21.9175 4.81622 23.2373 5.27027 24.1972 6.17838C25.1731 7.07027 25.661 8.34324 25.661 9.9973V14.7405C25.661 15.0486 25.709 15.2676 25.805 15.3973C25.917 15.527 26.101 15.6 26.3569 15.6162V17.7568C26.1169 17.8054 25.901 17.8378 25.709 17.8541C25.517 17.8703 25.357 17.8784 25.2291 17.8784C24.6691 17.8784 24.2452 17.7405 23.9572 17.4649C23.6693 17.1892 23.5013 16.8649 23.4533 16.4919L23.3813 15.7622C22.8374 16.4757 22.1415 17.027 21.2936 17.4162C20.4457 17.8054 19.5898 18 18.7259 18C17.894 18 17.1501 17.8297 16.4942 17.4892C15.8382 17.1324 15.3263 16.6541 14.9584 16.0541C14.5904 15.4541 14.4064 14.7811 14.4064 14.0351ZM22.3974 14.8135C22.5894 14.6027 22.7414 14.3919 22.8534 14.1811C22.9653 13.9703 23.0213 13.7838 23.0213 13.6216V12.1622C22.5734 11.9838 22.1015 11.8541 21.6055 11.773C21.1096 11.6757 20.6216 11.627 20.1417 11.627C19.1818 11.627 18.3979 11.8216 17.79 12.2108C17.1981 12.6 16.9021 13.1351 16.9021 13.8162C16.9021 14.1892 16.9981 14.5459 17.1901 14.8865C17.3981 15.227 17.686 15.5027 18.054 15.7135C18.4379 15.9243 18.9099 16.0297 19.4698 16.0297C20.0457 16.0297 20.5976 15.9162 21.1256 15.6892C21.6535 15.4622 22.0775 15.1703 22.3974 14.8135Z" fill="black"/>
<path d="M28.8875 0H31.5271V14.0838C31.5271 14.7324 31.6231 15.1459 31.8151 15.3243C32.0071 15.5027 32.2471 15.5919 32.535 15.5919C32.855 15.5919 33.1509 15.5595 33.4229 15.4946C33.7109 15.4297 33.9588 15.3486 34.1668 15.2514L34.5508 17.3676C34.1668 17.5297 33.7109 17.6676 33.1829 17.7811C32.655 17.8946 32.1831 17.9514 31.7671 17.9514C30.8712 17.9514 30.1673 17.7 29.6554 17.1973C29.1434 16.6784 28.8875 15.9649 28.8875 15.0568V0Z" fill="black"/>
<path d="M41.7206 18C40.7287 18 39.8408 17.8297 39.0569 17.4892C38.273 17.1324 37.5931 16.6459 37.0172 16.0297C36.4573 15.4135 36.0253 14.7162 35.7214 13.9378C35.4174 13.1432 35.2654 12.3 35.2654 11.4081C35.2654 10.5162 35.4174 9.67297 35.7214 8.87838C36.0253 8.08378 36.4573 7.38649 37.0172 6.78649C37.5931 6.17027 38.273 5.69189 39.0569 5.35135C39.8568 4.99459 40.7447 4.81622 41.7206 4.81622C42.6965 4.81622 43.5764 4.99459 44.3603 5.35135C45.1602 5.69189 45.8401 6.17027 46.4 6.78649C46.9759 7.38649 47.4159 8.08378 47.7198 8.87838C48.0238 9.67297 48.1758 10.5162 48.1758 11.4081C48.1758 12.3 48.0238 13.1432 47.7198 13.9378C47.4159 14.7162 46.9759 15.4135 46.4 16.0297C45.8401 16.6459 45.1602 17.1324 44.3603 17.4892C43.5764 17.8297 42.6965 18 41.7206 18ZM37.9771 11.4324C37.9771 12.2432 38.1451 12.973 38.481 13.6216C38.817 14.2703 39.2649 14.7811 39.8248 15.1541C40.3848 15.527 41.0167 15.7135 41.7206 15.7135C42.4085 15.7135 43.0324 15.527 43.5924 15.1541C44.1683 14.7649 44.6242 14.2459 44.9602 13.5973C45.2962 12.9324 45.4641 12.2027 45.4641 11.4081C45.4641 10.5973 45.2962 9.86757 44.9602 9.21892C44.6242 8.57027 44.1683 8.05946 43.5924 7.68649C43.0324 7.2973 42.4085 7.1027 41.7206 7.1027C41.0167 7.1027 40.3848 7.2973 39.8248 7.68649C39.2649 8.07568 38.817 8.59459 38.481 9.24324C38.1451 9.87568 37.9771 10.6054 37.9771 11.4324Z" fill="black"/>
<path d="M61.7716 17.7568H59.1319V10.6297C59.1319 9.44595 58.9399 8.57838 58.556 8.02703C58.188 7.47568 57.6361 7.2 56.9002 7.2C56.3883 7.2 55.8763 7.32973 55.3644 7.58919C54.8684 7.84865 54.4205 8.20541 54.0205 8.65946C53.6206 9.0973 53.3326 9.60811 53.1567 10.1919V17.7568H50.517V5.03514H52.9167V7.58919C53.2366 7.02162 53.6526 6.53514 54.1645 6.12973C54.6925 5.70811 55.2844 5.38378 55.9403 5.15676C56.5962 4.92973 57.2921 4.81622 58.028 4.81622C58.7799 4.81622 59.3959 4.95405 59.8758 5.22973C60.3717 5.5054 60.7557 5.88649 61.0277 6.37297C61.3156 6.84324 61.5076 7.39459 61.6036 8.02703C61.7156 8.64324 61.7716 9.3 61.7716 9.9973V17.7568Z" fill="black"/>
<path d="M64.8355 17.7568V5.03514H67.4752V17.7568H64.8355ZM64.8355 2.94324V0H67.4752V2.94324H64.8355Z" fill="black"/>
<path d="M79.3822 17.7568L75.3507 11.8946L73.2869 13.8892V17.7568H70.6473V0H73.2869V11.1892L79.0942 5.05946H81.9258L77.0545 10.3865L82.1898 17.7568H79.3822Z" fill="black"/>
<path d="M90.0589 17.7568V0.486486H92.7466V15.3486H101.889V17.7568H90.0589Z" fill="black"/>
<path d="M114.021 2.89459H108.358V17.7568H105.646V2.89459H99.9586V0.486486H114.021V2.89459Z" fill="black"/>
<path d="M116.306 17.7568V0.486486H122.353C124.193 0.486486 125.728 0.875675 126.96 1.65405C128.192 2.41622 129.112 3.45405 129.72 4.76757C130.344 6.06486 130.656 7.50811 130.656 9.0973C130.656 10.8486 130.312 12.373 129.624 13.6703C128.952 14.9676 127.992 15.973 126.744 16.6865C125.496 17.4 124.033 17.7568 122.353 17.7568H116.306ZM127.92 9.0973C127.92 7.88108 127.696 6.81081 127.248 5.88649C126.816 4.94595 126.184 4.21622 125.352 3.6973C124.537 3.16216 123.537 2.89459 122.353 2.89459H118.993V15.3486H122.353C123.553 15.3486 124.561 15.073 125.376 14.5216C126.208 13.9703 126.84 13.2243 127.272 12.2838C127.704 11.3432 127.92 10.2811 127.92 9.0973Z" fill="black"/>
<path d="M132.816 17.7568V14.6432H135V17.7568H132.816Z" fill="black"/>
</svg>
