<svg width="56" height="36" viewBox="0 0 56 36" fill="none" xmlns="http://www.w3.org/2000/svg">
<path d="M23.6145 5.32148H12.4257L8.54618 20.267C8.54618 20.267 21.4779 32.8914 27.2128 35.1559C29.6867 35.8352 31.5422 34.1935 31.5422 34.1935C33.448 34.4666 34.4948 34.1873 36.2651 31.8158C39.067 31.3069 40.036 30.5771 40.9879 28.7021C43.5204 28.0435 44.2532 27.2486 43.7992 24.7393L29.6867 11.7186L23.6145 5.32148Z" fill="white"/>
<path fill-rule="evenodd" clip-rule="evenodd" d="M11.7729 5.14969C11.8506 4.85071 12.1188 4.64213 12.4257 4.64213H23.6145C23.7987 4.64213 23.9749 4.71799 24.1022 4.8521L30.1591 11.233L44.255 24.2384C44.3636 24.3386 44.4366 24.4717 44.463 24.6175C44.6975 25.9137 44.6739 26.9891 44.0533 27.8224C43.5028 28.5613 42.5818 28.9647 41.4472 29.2817C40.982 30.1418 40.462 30.8182 39.6961 31.3354C38.9189 31.8602 37.9438 32.1831 36.6441 32.4356C35.8057 33.5267 35.0603 34.2341 34.2351 34.6142C33.4235 34.9879 32.6149 35.0083 31.7326 34.9036C31.6898 34.9346 31.6418 34.9682 31.5889 35.0039C31.3477 35.1665 31 35.3732 30.5655 35.5562C29.6965 35.9221 28.4565 36.2015 27.0353 35.8113C27.012 35.8049 26.989 35.7972 26.9665 35.7883C25.4441 35.1872 23.5 33.9265 21.4758 32.4205C19.4377 30.9042 17.2692 29.1015 15.2876 27.3761C13.3048 25.6497 11.5029 23.9951 10.197 22.7724C9.54382 22.1609 9.01435 21.6571 8.64789 21.3059C8.46465 21.1303 8.32214 20.9928 8.22529 20.8991C8.17686 20.8522 8.13984 20.8163 8.11484 20.792L8.07675 20.7549C8.07662 20.7548 8.07653 20.7547 8.54618 20.267L8.07654 20.7547C7.90187 20.5842 7.83191 20.3322 7.89343 20.0952L11.7729 5.14969ZM9.299 20.0534C9.37708 20.1287 9.4705 20.2185 9.57823 20.3218C9.94138 20.6698 10.467 21.17 11.1158 21.7774C12.4138 22.9926 14.2032 24.6357 16.1703 26.3484C18.1385 28.0621 20.2782 29.8401 22.2777 31.3278C24.2741 32.813 26.0832 33.9725 27.4249 34.5098C28.4633 34.7851 29.3751 34.5847 30.0449 34.3027C30.2068 34.2345 30.3532 34.1621 30.482 34.0915L24.0389 27.6559C23.7744 27.3917 23.7726 26.9615 24.0351 26.6952C24.2975 26.4288 24.7247 26.4271 24.9892 26.6913L31.856 33.55C32.6437 33.6462 33.1745 33.6085 33.6738 33.3786C34.1568 33.1562 34.6808 32.7212 35.3634 31.8754L28.6512 25.2235C28.3857 24.9603 28.3823 24.5302 28.6437 24.2628C28.905 23.9954 29.3322 23.992 29.5978 24.2551L36.4866 31.0822C37.658 30.8476 38.4006 30.5743 38.9445 30.207C39.4186 29.8869 39.7829 29.4673 40.1462 28.8392L32.5991 21.7253C32.3271 21.4689 32.313 21.039 32.5677 20.7651C32.8224 20.4912 33.2493 20.477 33.5214 20.7334L41.1744 27.9472C42.1994 27.6517 42.7129 27.3572 42.9738 27.0071C43.2224 26.6734 43.3397 26.146 43.173 25.0829L29.2309 12.2195C29.2199 12.2093 29.2093 12.1988 29.199 12.188L23.326 6.00082H12.9467L9.299 20.0534Z" fill="#A00107"/>
<path d="M0.674699 22.0786V0.679341C4.32932 0.679337 9.50201 1.24543 12.9879 3.50993L8.09638 22.0786H0.674699Z" fill="white"/>
<path fill-rule="evenodd" clip-rule="evenodd" d="M0 0.679341C0 0.304152 0.302072 3.77944e-07 0.674698 0C4.35464 -3.83321e-06 9.69559 0.562725 13.3537 2.93908C13.5994 3.0987 13.7151 3.39951 13.6401 3.6841L8.74853 22.2527C8.67008 22.5506 8.40239 22.7579 8.09638 22.7579H0.674699C0.302073 22.7579 0 22.4538 0 22.0786V0.679341ZM1.3494 1.36519V21.3992H7.57731L12.2071 3.82439C9.11017 2.00526 4.74981 1.43058 1.3494 1.36519Z" fill="#A00107"/>
<path fill-rule="evenodd" clip-rule="evenodd" d="M55.3253 3.05701V24.4562H48.5221L42.1124 5.49131C45.5984 3.22681 51.6707 3.057 55.3253 3.05701ZM47.7911 22.4182L43.5743 24.4563L29.4618 11.4922C28.2795 12.3705 27.4932 12.7917 26.257 12.9641C24.7432 14.3476 23.0949 14.903 21.6996 15.0842C19.8644 15.3224 18.826 13.4495 19.6137 11.7636C20.9232 8.96118 23.3137 5.07334 26.9474 3.61671C28.4615 3.00975 30.1394 3.35614 31.6649 3.9337L42.9558 8.2087L47.7911 22.4182Z" fill="white"/>
<path fill-rule="evenodd" clip-rule="evenodd" d="M48.5659 2.75166C51.0227 2.41992 53.491 2.37766 55.3253 2.37767C55.6979 2.37767 56 2.68182 56 3.05701V24.4562C56 24.8314 55.6979 25.1356 55.3253 25.1356H48.5221C48.2332 25.1356 47.9764 24.9504 47.8834 24.6751L47.4337 23.3446L43.8663 25.0687C43.6182 25.1886 43.3228 25.1448 43.1196 24.9581L29.4109 12.365C28.4583 13.0304 27.6621 13.4208 26.5558 13.6054C24.9638 14.9986 23.2433 15.5687 21.7859 15.7579C20.5985 15.9121 19.6223 15.3723 19.096 14.4974C18.5806 13.6407 18.5197 12.5092 19.0032 11.4744C20.3218 8.65242 22.8061 4.54561 26.6978 2.98555C28.4539 2.28161 30.3355 2.70458 31.9024 3.29783L41.9433 7.09955L41.4737 5.71016C41.374 5.41505 41.4865 5.08946 41.7467 4.92047C43.6156 3.70643 46.1238 3.08143 48.5659 2.75166ZM42.4206 8.73185L31.4274 4.56956C29.9434 4.0077 28.4692 3.73789 27.197 4.24787C23.8213 5.60106 21.5245 9.26994 20.2242 12.0528C19.92 12.704 19.9845 13.3518 20.2502 13.7935C20.5049 14.217 20.9655 14.4945 21.6134 14.4104C22.8992 14.2434 24.4107 13.7341 25.8036 12.461C25.9041 12.3691 26.0299 12.3099 26.1645 12.2911C27.245 12.1405 27.9253 11.7894 29.0613 10.9455C29.3205 10.753 29.6787 10.7718 29.9166 10.9903L43.6927 23.6455L46.9585 22.0671L42.4206 8.73185ZM42.9266 5.7916L49.0052 23.7769H54.6506V3.73856C52.9342 3.75045 50.8279 3.81707 48.7453 4.09828C46.5786 4.39086 44.5017 4.90811 42.9266 5.7916Z" fill="#A00107"/>
</svg>
