<svg width="40" height="40" viewBox="0 0 40 40" fill="none" xmlns="http://www.w3.org/2000/svg">
<path fill-rule="evenodd" clip-rule="evenodd" d="M3.63636 29.9605C3.63636 28.3888 4.91049 27.1146 6.48221 27.1146H33.913C35.4583 27.1146 36.716 28.3463 36.7578 29.8814H40V35.9684H36.7415C36.5415 38.2281 34.6437 40 32.332 40H27.8189C24.6988 40 21.8194 38.3693 20.2039 35.734C18.6323 38.3668 15.7831 40 12.6871 40H8.06324C5.97213 40 4.21965 38.5501 3.75626 36.6008H0V30.5138H3.63636V29.9605ZM8.06324 39.0514C6.14225 39.0514 4.58498 37.4941 4.58498 35.5731V29.9605C4.58498 28.9127 5.4344 28.0632 6.48221 28.0632H33.913C34.9609 28.0632 35.8103 28.9127 35.8103 29.9605V35.5731C35.8103 37.4941 34.253 39.0514 32.332 39.0514H27.8189C24.8474 39.0514 22.119 37.3958 20.7425 34.7616C20.5125 34.3216 19.8789 34.3223 19.6532 34.7685C18.3244 37.3954 15.6309 39.0514 12.6871 39.0514H8.06324ZM0.948617 31.4625H3.63636V32.4901H0.948617V31.4625ZM0.948617 33.4387V35.6522H3.63636V33.4387H0.948617ZM36.8379 32.8063V35.0198H39.0514V32.8063H36.8379ZM36.8379 31.8577H39.0514V30.83H36.8379V31.8577ZM7.11462 31.581C7.11462 31.0571 7.53933 30.6324 8.06324 30.6324H16.917C17.1789 30.6324 17.3913 30.4201 17.3913 30.1581C17.3913 29.8961 17.1789 29.6838 16.917 29.6838H8.06324C7.01543 29.6838 6.16601 30.5332 6.16601 31.581V34.3478C6.16601 34.6098 6.37836 34.8221 6.64032 34.8221C6.90227 34.8221 7.11462 34.6098 7.11462 34.3478V31.581ZM18.5771 30.1581C18.5771 29.8961 18.7894 29.6838 19.0514 29.6838H21.2648C21.5268 29.6838 21.7391 29.8961 21.7391 30.1581C21.7391 30.4201 21.5268 30.6324 21.2648 30.6324H19.0514C18.7894 30.6324 18.5771 30.4201 18.5771 30.1581Z" fill="#A00107"/>
<path fill-rule="evenodd" clip-rule="evenodd" d="M15.6522 0.948617C15.4775 0.948617 15.336 1.09019 15.336 1.26482V14.6937H14.3873V2.84372C10.7408 3.92265 8.22038 6.05528 6.51171 8.49812C4.16839 11.8483 3.3361 15.8083 3.28208 18.498H37.3689C37.1947 15.5734 36.2726 11.6058 33.8192 8.31196C32.0976 6.00053 29.6083 4.0013 26.0474 2.92968V14.6937H25.1383V1.26482C25.1383 1.09019 24.9968 0.948617 24.8221 0.948617H20.6324V15.415H20.6912V16.5217H19.7426V15.415H19.8419V0.948617H15.6522ZM38.3191 18.498C38.1456 15.4399 37.1896 11.249 34.58 7.74532C32.6886 5.20594 29.943 3.04831 26.0474 1.94148V1.26482C26.0474 0.56628 25.4811 0 24.7826 0H15.6522C14.9536 0 14.3873 0.566279 14.3873 1.26482V1.85682C10.3886 2.97014 7.60695 5.27724 5.73438 7.9544C3.25811 11.4947 2.3871 15.656 2.33331 18.498H1.58103C0.882486 18.498 0.316206 19.0643 0.316206 19.7628V21.8182C0.316206 22.5167 0.882484 23.083 1.58103 23.083H38.7352C39.4337 23.083 40 22.5167 40 21.8182V19.7628C40 19.0643 39.4337 18.498 38.7352 18.498H38.3191ZM1.26482 19.7628C1.26482 19.5882 1.40639 19.4466 1.58103 19.4466H38.7352C38.9098 19.4466 39.0514 19.5882 39.0514 19.7628V21.8182C39.0514 21.9928 38.9098 22.1344 38.7352 22.1344H1.58103C1.40639 22.1344 1.26482 21.9928 1.26482 21.8182V19.7628Z" fill="#A00107"/>
</svg>
