<svg width="34" height="40" viewBox="0 0 34 40" fill="none" xmlns="http://www.w3.org/2000/svg">
<path fill-rule="evenodd" clip-rule="evenodd" d="M20.4508 3.9357L18.4932 1.60216C17.7196 0.680057 16.2804 0.680058 15.5068 1.60217L13.5492 3.9357C12.7471 4.8918 11.5125 5.39348 10.2562 5.27379L7.18988 4.98166C5.97823 4.86622 4.96052 5.86458 5.0782 7.0532L5.37599 10.0612C5.498 11.2936 4.9866 12.5048 4.01197 13.2916L1.63321 15.212C0.693236 15.9709 0.693237 17.3828 1.63321 18.1416L4.01197 20.062C4.9866 20.8489 5.498 22.06 5.37599 23.2924L5.0782 26.3004C4.96052 27.4891 5.97823 28.4874 7.18988 28.372L10.2562 28.0799C11.5125 27.9602 12.7471 28.4618 13.5492 29.4179L15.5068 31.7515C16.2804 32.6736 17.7196 32.6736 18.4932 31.7515L20.4508 29.4179C21.2529 28.4618 22.4875 27.9602 23.7438 28.0799L26.8101 28.372C28.0218 28.4874 29.0395 27.4891 28.9218 26.3004L28.624 23.2924C28.502 22.06 29.0134 20.8489 29.988 20.062L32.3668 18.1416C33.3068 17.3828 33.3068 15.9709 32.3668 15.212L29.988 13.2916C29.0134 12.5048 28.502 11.2936 28.624 10.0612L28.9218 7.0532C29.0395 5.86458 28.0218 4.86622 26.8101 4.98166L23.7438 5.27379C22.4875 5.39348 21.2529 4.8918 20.4508 3.9357ZM19.2099 1.02354C18.065 -0.341181 15.935 -0.341179 14.7901 1.02354L12.8325 3.35708C12.2268 4.07903 11.2945 4.45785 10.3459 4.36747L7.27961 4.07534C5.48636 3.90449 3.98016 5.38206 4.15431 7.14122L4.4521 10.1492C4.54423 11.0798 4.15808 11.9944 3.42213 12.5885L1.04337 14.5089C-0.347792 15.632 -0.34779 17.7216 1.04337 18.8447L3.42213 20.7651C4.15808 21.3593 4.54423 22.2738 4.4521 23.2044L4.15431 26.2124C3.98016 27.9716 5.48636 29.4492 7.27961 29.2783L10.3459 28.9862C11.2945 28.8958 12.2268 29.2746 12.8325 29.9966L14.7901 32.3301C15.935 33.6948 18.065 33.6948 19.2099 32.3301L21.1675 29.9966C21.7732 29.2746 22.7055 28.8958 23.6541 28.9862L26.7204 29.2783C28.5136 29.4492 30.0198 27.9716 29.8457 26.2124L29.5479 23.2044C29.4558 22.2738 29.8419 21.3593 30.5779 20.7651L32.9566 18.8447C34.3478 17.7216 34.3478 15.632 32.9566 14.5089L30.5779 12.5885C29.8419 11.9944 29.4558 11.0798 29.5479 10.1492L29.8457 7.14122C30.0198 5.38206 28.5136 3.90449 26.7204 4.07534L23.6541 4.36747C22.7055 4.45785 21.7732 4.07903 21.1675 3.35708L19.2099 1.02354Z" fill="#A00107"/>
<path fill-rule="evenodd" clip-rule="evenodd" d="M25.2213 10.2116C25.4008 10.3911 25.3979 10.6794 25.2149 10.8554L16.8456 18.9077L12.8851 15.1052C12.7019 14.9293 12.6987 14.641 12.878 14.4613C13.0573 14.2816 13.3512 14.2785 13.5344 14.4544L16.845 17.633L24.565 10.2053C24.748 10.0293 25.0418 10.0321 25.2213 10.2116Z" fill="#A00107"/>
<path fill-rule="evenodd" clip-rule="evenodd" d="M9.72886 31.1703C9.98519 31.1703 10.193 31.3741 10.193 31.6256V38.8427L17.1582 35.284L23.8844 38.8315V31.6256C23.8844 31.3741 24.0922 31.1703 24.3485 31.1703C24.6048 31.1703 24.8126 31.3741 24.8126 31.6256V39.4662C24.8126 39.868 24.3755 40.1243 24.0147 39.9341L17.1513 36.3142L10.0563 39.9392C9.69586 40.1234 9.26475 39.8668 9.26475 39.4681V31.6256C9.26475 31.3741 9.47254 31.1703 9.72886 31.1703Z" fill="#A00107"/>
<path fill-rule="evenodd" clip-rule="evenodd" d="M19.2555 10.3764C17.8928 9.90695 16.4131 9.87486 15.0305 10.2848C13.6479 10.6948 12.4341 11.5255 11.5646 12.6569C10.6951 13.7883 10.215 15.1617 10.1937 16.5784C10.1724 17.9952 10.6111 19.3818 11.4462 20.5379C12.2814 21.6939 13.4697 22.5594 14.8394 23.0091C16.209 23.4589 17.689 23.4696 19.0653 23.0397C20.4416 22.6098 21.6428 21.7616 22.4952 20.6177C23.3476 19.4739 23.807 18.0937 23.807 16.6768H24.7353C24.7353 18.2869 24.2132 19.8553 23.2445 21.1551C22.2759 22.4549 20.9109 23.4188 19.3469 23.9073C17.783 24.3958 16.1012 24.3837 14.5447 23.8726C12.9883 23.3615 11.6379 22.378 10.6889 21.0644C9.73986 19.7507 9.2414 18.1749 9.26559 16.565C9.28977 14.9551 9.83535 13.3944 10.8234 12.1087C11.8115 10.8231 13.1908 9.87903 14.7619 9.41318C16.3331 8.94732 18.0145 8.98378 19.5631 9.5173L19.2555 10.3764Z" fill="#A00107"/>
</svg>
